<?xml version="1.0" encoding="UTF-8"?>
<!DOCTYPE svg PUBLIC "-//W3C//DTD SVG 1.1//EN" "http://www.w3.org/Graphics/SVG/1.1/DTD/svg11.dtd">
<svg xmlns="http://www.w3.org/2000/svg" version="1.1" width="32px" height="32px" style="shape-rendering:geometricPrecision; text-rendering:geometricPrecision; image-rendering:optimizeQuality; fill-rule:evenodd; clip-rule:evenodd" xmlns:xlink="http://www.w3.org/1999/xlink">
<g><path style="opacity:0.639" fill="#000000" d="M 4.5,-0.5 C 11.8333,-0.5 19.1667,-0.5 26.5,-0.5C 26.7828,0.28913 27.2828,0.955796 28,1.5C 28.6667,10.8333 28.6667,20.1667 28,29.5C 27.2828,30.0442 26.7828,30.7109 26.5,31.5C 19.1667,31.5 11.8333,31.5 4.5,31.5C 4.21719,30.7109 3.71719,30.0442 3,29.5C 2.33333,20.1667 2.33333,10.8333 3,1.5C 3.71719,0.955796 4.21719,0.28913 4.5,-0.5 Z M 6.5,1.5 C 12.8933,1.20711 19.2266,1.54044 25.5,2.5C 26.8333,11.1667 26.8333,19.8333 25.5,28.5C 18.8333,29.8333 12.1667,29.8333 5.5,28.5C 3.90972,19.2579 4.24306,10.2579 6.5,1.5 Z"/></g>
<g><path style="opacity:0.511" fill="#000000" d="M 9.5,5.5 C 13.2076,6.55088 13.0409,7.88422 9,9.5C 7.72024,9.38652 6.88691,8.71986 6.5,7.5C 7.60164,6.82434 8.60164,6.15767 9.5,5.5 Z"/></g>
<g><path style="opacity:0.623" fill="#000000" d="M 13.5,6.5 C 17.226,6.17744 20.8927,6.51078 24.5,7.5C 22.6667,7.83333 20.8333,8.16667 19,8.5C 16.7047,8.4535 14.8714,7.78683 13.5,6.5 Z"/></g>
<g><path style="opacity:0.483" fill="#000000" d="M 10.5,10.5 C 12.0281,10.5173 12.5281,11.184 12,12.5C 10.8867,14.3293 9.38673,15.1626 7.5,15C 6.97814,14.4387 6.6448,13.772 6.5,13C 8.07313,12.6626 9.40647,11.8292 10.5,10.5 Z"/></g>
<g><path style="opacity:0.623" fill="#000000" d="M 13.5,11.5 C 17.226,11.1774 20.8927,11.5108 24.5,12.5C 22.6667,12.8333 20.8333,13.1667 19,13.5C 16.7047,13.4535 14.8714,12.7868 13.5,11.5 Z"/></g>
<g><path style="opacity:0.457" fill="#000000" d="M 10.5,15.5 C 12.2252,15.8425 12.7252,16.8425 12,18.5C 10.0692,21.1047 8.23582,21.1047 6.5,18.5C 8.18357,17.8503 9.5169,16.8503 10.5,15.5 Z"/></g>
<g><path style="opacity:0.623" fill="#000000" d="M 13.5,17.5 C 17.226,17.1774 20.8927,17.5108 24.5,18.5C 22.6667,18.8333 20.8333,19.1667 19,19.5C 16.7047,19.4535 14.8714,18.7868 13.5,17.5 Z"/></g>
<g><path style="opacity:0.511" fill="#000000" d="M 9.5,21.5 C 13.2076,22.5509 13.0409,23.8842 9,25.5C 7.72024,25.3865 6.88691,24.7199 6.5,23.5C 7.60164,22.8243 8.60164,22.1577 9.5,21.5 Z"/></g>
<g><path style="opacity:0.623" fill="#000000" d="M 13.5,22.5 C 17.226,22.1774 20.8927,22.5108 24.5,23.5C 22.6667,23.8333 20.8333,24.1667 19,24.5C 16.7047,24.4535 14.8714,23.7868 13.5,22.5 Z"/></g>
</svg>
