<?xml version="1.0" standalone="no"?>
<!DOCTYPE svg PUBLIC "-//W3C//DTD SVG 20010904//EN"
 "http://www.w3.org/TR/2001/REC-SVG-20010904/DTD/svg10.dtd">
<svg version="1.0" xmlns="http://www.w3.org/2000/svg"
 width="500.000000pt" height="500.000000pt" viewBox="0 0 500.000000 500.000000"
 preserveAspectRatio="xMidYMid meet">

<g transform="translate(0.000000,500.000000) scale(0.100000,-0.100000)"
fill="#ffffff" stroke="none">
<path d="M2340 4961 c-72 -22 -142 -84 -169 -149 l-13 -32 -128 0 c-123 0
-130 -1 -159 -26 -47 -39 -53 -77 -49 -289 3 -163 6 -194 21 -217 40 -58 41
-58 556 -58 514 0 521 1 558 56 15 24 19 54 22 192 4 225 -2 268 -46 309 l-34
33 -125 0 -124 0 -24 49 c-54 105 -181 164 -286 132z m113 -134 c44 -19 57
-37 71 -99 16 -72 30 -78 194 -78 l132 0 0 -165 0 -165 -445 0 -445 0 0 165 0
165 140 0 c136 0 142 1 165 25 14 13 25 36 25 50 0 40 25 80 62 98 41 20 59
21 101 4z"/>
<path d="M1341 4589 c-48 -19 -84 -54 -107 -103 l-24 -51 0 -1288 c0 -949 3
-1300 12 -1335 15 -59 80 -126 136 -142 28 -7 354 -10 1064 -8 l1023 3 47 27
c34 21 53 41 72 80 l26 52 0 467 c0 436 -1 468 -18 489 -22 27 -65 29 -92 5
-19 -18 -20 -33 -20 -480 0 -441 -1 -464 -19 -486 l-19 -24 -1021 0 c-966 0
-1021 1 -1038 18 -17 17 -18 84 -21 1300 -1 705 0 1292 3 1304 11 47 29 53
151 53 142 0 174 13 174 71 0 51 -23 59 -171 58 -74 0 -145 -5 -158 -10z"/>
<path d="M3146 4578 c-22 -32 -20 -55 9 -83 23 -24 30 -25 145 -25 161 0 160
1 160 -158 0 -106 2 -121 20 -137 10 -9 31 -17 45 -17 14 0 35 8 45 17 18 16
20 31 20 142 0 165 -22 218 -112 264 -31 16 -59 19 -177 19 -133 0 -141 -1
-155 -22z"/>
<path d="M3752 4158 c-95 -141 -94 -144 29 -228 58 -40 87 -66 82 -73 -6 -10
-367 -539 -811 -1188 -97 -142 -113 -160 -177 -202 -38 -25 -71 -45 -72 -43
-2 2 5 39 16 82 20 87 -19 26 625 964 273 398 280 411 225 452 -24 18 -30 19
-54 7 -20 -10 -158 -205 -458 -644 l-430 -630 -49 -199 c-45 -184 -47 -200
-33 -222 19 -30 56 -39 87 -22 14 7 88 58 166 112 l141 99 192 281 c612 895
788 1154 789 1167 7 48 -1 59 -90 119 -50 34 -88 65 -85 71 7 11 6 12 109 -58
43 -29 85 -53 93 -53 32 0 63 32 63 65 0 41 -5 47 -139 140 -144 99 -154 99
-219 3z"/>
<path d="M1660 3700 l0 -230 230 0 230 0 0 230 0 230 -230 0 -230 0 0 -230z
m325 0 l0 -95 -97 -3 -98 -3 0 101 0 101 98 -3 97 -3 0 -95z"/>
<path d="M2341 3874 c-27 -34 -26 -50 4 -79 l24 -25 366 0 366 0 24 25 c30 29
31 45 4 79 l-20 26 -374 0 -374 0 -20 -26z"/>
<path d="M2347 3612 c-21 -23 -22 -62 -3 -88 14 -18 31 -19 293 -22 271 -3
280 -2 306 18 30 24 34 55 11 88 -15 22 -17 22 -303 22 -266 0 -289 -1 -304
-18z"/>
<path d="M1660 3010 l0 -230 230 0 230 0 0 230 0 230 -230 0 -230 0 0 -230z
m328 22 c6 -124 8 -122 -103 -122 l-95 0 0 100 0 101 97 -3 98 -3 3 -73z"/>
<path d="M2352 3064 c-28 -19 -30 -74 -4 -97 16 -15 45 -17 194 -17 157 0 177
2 191 18 23 25 21 68 -3 92 -18 18 -33 20 -188 20 -135 0 -172 -3 -190 -16z"/>
<path d="M1660 2320 l0 -230 230 0 230 0 0 230 0 230 -230 0 -230 0 0 -230z
m325 0 l0 -95 -97 -3 -98 -3 0 101 0 101 98 -3 97 -3 0 -95z"/>
<path d="M790 1090 l0 -280 65 0 65 0 0 155 c0 85 4 155 8 155 5 0 37 -70 72
-155 l63 -155 47 0 c54 0 43 -16 121 177 28 70 55 132 60 138 5 5 9 -59 9
-153 l0 -162 65 0 65 0 0 280 0 280 -78 0 -77 0 -79 -190 c-43 -105 -81 -190
-85 -190 -3 0 -41 86 -85 190 l-78 190 -79 0 -79 0 0 -280z"/>
<path d="M2222 1324 l3 -46 70 -2 70 -1 3 -232 2 -233 65 0 65 0 2 233 c2 177
6 232 16 233 6 1 39 2 72 3 l60 1 0 45 0 45 -216 0 -215 0 3 -46z"/>
<path d="M3230 1089 l0 -282 138 6 c159 6 211 21 275 77 65 58 91 124 85 221
-5 92 -35 150 -100 198 -65 48 -123 61 -270 61 l-128 0 0 -281z m224 181 c70
-11 120 -52 136 -110 39 -139 -40 -250 -177 -250 l-53 0 0 178 c0 98 3 182 7
185 8 9 17 9 87 -3z"/>
<path d="M1501 1208 c171 -431 161 -375 96 -525 l-36 -83 68 0 68 0 138 318
c75 174 139 323 142 330 4 9 -13 12 -63 12 l-69 0 -54 -145 c-29 -80 -57 -143
-61 -140 -5 3 -29 68 -55 145 l-47 140 -74 0 -74 0 21 -52z"/>
<path d="M2848 1250 c-119 -36 -181 -157 -145 -281 29 -98 113 -158 220 -159
138 0 227 88 227 225 0 77 -21 126 -74 173 -54 47 -151 65 -228 42z m116 -110
c62 -23 76 -150 22 -197 -55 -47 -139 -16 -155 57 -21 101 47 173 133 140z"/>
<path d="M3916 1245 c-50 -17 -112 -79 -127 -124 -19 -56 -14 -142 9 -188 27
-51 81 -99 129 -112 136 -38 264 25 299 147 55 188 -120 345 -310 277z m155
-124 c25 -26 29 -37 29 -86 0 -49 -4 -60 -29 -86 -22 -21 -39 -29 -66 -29 -56
0 -95 44 -95 107 0 57 17 93 50 110 42 21 79 16 111 -16z"/>
<path d="M2827 493 c-4 -3 -7 -82 -7 -175 l0 -168 40 0 40 0 0 53 1 52 47 -53
c43 -48 50 -52 91 -52 l44 0 -27 33 c-14 17 -38 47 -52 65 l-26 32 25 33 c14
17 38 47 52 65 l26 32 -48 0 c-48 0 -50 -1 -91 -57 l-42 -57 0 102 0 102 -33
0 c-19 0 -37 -3 -40 -7z"/>
<path d="M1920 450 c0 -29 2 -30 45 -30 l45 0 0 -135 0 -135 34 0 c19 0 36 6
38 13 2 6 4 67 3 134 l-2 122 46 3 c42 3 46 5 49 31 l3 27 -130 0 -131 0 0
-30z"/>
<path d="M2261 384 c-85 -71 -52 -214 53 -231 29 -4 44 -1 67 16 29 21 29 21
29 1 0 -16 6 -20 35 -20 l35 0 0 130 0 130 -35 0 c-25 0 -35 -4 -35 -16 0 -14
-2 -14 -22 0 -35 25 -91 20 -127 -10z m129 -54 c29 -29 26 -74 -6 -99 -33 -26
-49 -26 -74 -1 -28 28 -27 84 2 104 30 21 54 20 78 -4z"/>
<path d="M2569 381 c-16 -16 -29 -37 -29 -46 0 -26 44 -62 86 -69 51 -9 68
-20 61 -40 -7 -18 -48 -21 -64 -5 -6 6 -27 9 -46 7 -35 -3 -36 -4 -24 -28 7
-15 29 -31 53 -39 74 -26 154 9 154 68 0 35 -23 56 -80 71 -58 15 -74 28 -59
46 15 18 43 18 59 -1 13 -16 80 -21 80 -6 0 42 -48 71 -115 71 -38 0 -52 -5
-76 -29z"/>
</g>
</svg>
